<svg width="30" height="34" viewBox="0 0 30 34" fill="none" xmlns="http://www.w3.org/2000/svg">
<g clip-path="url(#clip0_306708_106)">
<path d="M15.0067 9.36331C10.7478 9.36331 7.31252 12.7699 7.31252 16.9934C7.31252 21.2168 10.7478 24.6235 15.0067 24.6235C19.2656 24.6235 22.7009 21.2168 22.7009 16.9934C22.7009 12.7699 19.2656 9.36331 15.0067 9.36331ZM15.0067 21.9539C12.2545 21.9539 10.0045 19.7293 10.0045 16.9934C10.0045 14.2574 12.2478 12.0328 15.0067 12.0328C17.7656 12.0328 20.0089 14.2574 20.0089 16.9934C20.0089 19.7293 17.7589 21.9539 15.0067 21.9539ZM24.8103 9.0512C24.8103 10.0406 24.0067 10.8309 23.0156 10.8309C22.0179 10.8309 21.221 10.034 21.221 9.0512C21.221 8.06838 22.0246 7.27151 23.0156 7.27151C24.0067 7.27151 24.8103 8.06838 24.8103 9.0512ZM29.9063 10.8574C29.7924 8.47346 29.2433 6.36174 27.4822 4.6219C25.7277 2.88206 23.5982 2.33752 21.1942 2.21799C18.7165 2.07854 11.2902 2.07854 8.81252 2.21799C6.4152 2.33088 4.28573 2.87541 2.52457 4.61526C0.76341 6.3551 0.221 8.46682 0.100464 10.8508C-0.0401611 13.3078 -0.0401611 20.6723 0.100464 23.1293C0.214303 25.5133 0.76341 27.625 2.52457 29.3649C4.28573 31.1047 6.4085 31.6492 8.81252 31.7688C11.2902 31.9082 18.7165 31.9082 21.1942 31.7688C23.5982 31.6559 25.7277 31.1114 27.4822 29.3649C29.2366 27.625 29.7857 25.5133 29.9063 23.1293C30.0469 20.6723 30.0469 13.3145 29.9063 10.8574ZM26.7054 25.7656C26.1831 27.0672 25.1719 28.0699 23.8527 28.5946C21.8773 29.3715 17.1897 29.1922 15.0067 29.1922C12.8237 29.1922 8.12948 29.3649 6.16073 28.5946C4.84823 28.0766 3.83707 27.0739 3.30805 25.7656C2.52457 23.8067 2.70537 19.1582 2.70537 16.9934C2.70537 14.8285 2.53127 10.1735 3.30805 8.22112C3.83037 6.91956 4.84153 5.91682 6.16073 5.39221C8.13618 4.61526 12.8237 4.79456 15.0067 4.79456C17.1897 4.79456 21.8839 4.6219 23.8527 5.39221C25.1652 5.91018 26.1764 6.91291 26.7054 8.22112C27.4889 10.1801 27.3081 14.8285 27.3081 16.9934C27.3081 19.1582 27.4889 23.8133 26.7054 25.7656Z" fill="white"/>
</g>
<defs>
<clipPath id="clip0_306708_106">
<rect width="30" height="34" fill="white"/>
</clipPath>
</defs>
</svg>
