<svg width="30" height="34" viewBox="0 0 30 34" fill="none" xmlns="http://www.w3.org/2000/svg">
<path d="M27.8571 2.125H2.13616C0.957589 2.125 0 3.08789 0 4.26992V29.7301C0 30.9121 0.957589 31.875 2.13616 31.875H27.8571C29.0357 31.875 30 30.9121 30 29.7301V4.26992C30 3.08789 29.0357 2.125 27.8571 2.125ZM9.06696 27.625H4.62054V13.4273H9.07366V27.625H9.06696ZM6.84375 11.4883C5.41741 11.4883 4.26562 10.3395 4.26562 8.93164C4.26562 7.52383 5.41741 6.375 6.84375 6.375C8.26339 6.375 9.42187 7.52383 9.42187 8.93164C9.42187 10.3461 8.27009 11.4883 6.84375 11.4883ZM25.7344 27.625H21.2879V20.7188C21.2879 19.0719 21.2545 16.9535 18.9777 16.9535C16.6607 16.9535 16.3058 18.7465 16.3058 20.5992V27.625H11.8594V13.4273H16.125V15.3664H16.1853C16.7812 14.2508 18.2344 13.0754 20.3973 13.0754C24.8973 13.0754 25.7344 16.0172 25.7344 19.8422V27.625Z" fill="white"/>
</svg>
