<svg width="34" height="34" viewBox="0 0 34 34" fill="none" xmlns="http://www.w3.org/2000/svg">
<path d="M30.505 10.0749C30.5266 10.377 30.5266 10.679 30.5266 10.9811C30.5266 20.1929 23.5152 30.8072 10.7005 30.8072C6.75252 30.8072 3.08504 29.6637 0 27.679C0.560934 27.7437 1.10022 27.7653 1.68273 27.7653C4.94029 27.7653 7.93907 26.6651 10.3337 24.7882C7.27029 24.7234 4.70302 22.7171 3.81849 19.9557C4.25 20.0203 4.68144 20.0635 5.13453 20.0635C5.76014 20.0635 6.38582 19.9772 6.96827 19.8262C3.77539 19.179 1.38065 16.3744 1.38065 12.9874V12.9011C2.30828 13.4189 3.38705 13.7425 4.53037 13.7856C2.65346 12.5343 1.42382 10.3985 1.42382 7.98228C1.42382 6.68789 1.76893 5.50134 2.37303 4.4658C5.80324 8.69422 10.9594 11.4556 16.741 11.7577C16.6332 11.2399 16.5684 10.7006 16.5684 10.1613C16.5684 6.32113 19.675 3.19299 23.5367 3.19299C25.543 3.19299 27.3552 4.03436 28.6281 5.3935C30.2029 5.09148 31.713 4.50897 33.0507 3.71076C32.5328 5.32882 31.4326 6.68795 29.9872 7.55084C31.3895 7.3999 32.7486 7.01149 33.9999 6.4722C33.0508 7.85285 31.8642 9.0825 30.505 10.0749Z" fill="white"/>
</svg>
